<?xml version="1.0" standalone="no"?><!DOCTYPE svg PUBLIC "-//W3C//DTD SVG 1.1//EN"
        "http://www.w3.org/Graphics/SVG/1.1/DTD/svg11.dtd">
<svg t="1710769467212" class="icon" viewBox="0 0 1024 1024" version="1.1" xmlns="http://www.w3.org/2000/svg" p-id="3424"
     width="200" height="200">
    <path d="M175.31216 854.176c149.968 147.728 385.488 183.808 576.64 73.44C943.12016 817.28 1029.63216 595.248 976.67216 391.52l28.688-16.56c61.168 219.632-30.832 461.12-237.408 580.384-206.56 119.264-461.712 78.192-621.312-84.592l28.672-16.56z m116.672-67.36c109.888 87.92 266.768 104.576 396 29.968 129.216-74.608 193.216-218.784 172.016-357.92l29.568-17.072c28.912 155.488-40.832 319.12-185.6 402.72-144.768 83.568-321.344 62.16-441.552-40.64l29.568-17.056z m471.568-418.72l9.072 15.712c0.832 18.912-3.712 38.352-13.856 58.416 20.56-2.688 43.744-8.192 69.36-16.576l7.76-2.592-1.152 22.64c-33.472 10.544-62.928 16.416-88.416 17.952-14.304 21.136-33.84 43.12-58.72 65.76l-6.336 5.68-19.776-11.872c25.248-20.768 45.024-40.72 59.744-59.568-20.32-1.536-37.728-6.288-51.904-14.416l-3.792-2.304-6.976 4.032-9.632-16.688 114.624-66.176zM518.40016 496.192l18.784-8.256c0.544 3.648 1.056 7.2 1.504 10.688l0.64 5.136 64.208-37.056 10.304 17.84-20.176 11.648c4.48 14.48 5.44 28.672 2.928 42.272 11.376-1.136 22.832-1.888 34.24-2.272l11.36-0.272-1.568 20.56c-14.272-0.544-30.992 0.064-50.16 1.808-7.504 15.44-21.792 32.768-43.04 52.08l-4.656 4.16-16.8-12.528c18.144-15.136 31.472-28.784 39.76-41.312l-17.216 2.064c-8.8 1.088-17.872 2.304-27.296 3.712 0.448-7.632 0.64-14.96 0.672-21.952v-6.88l-23.072 13.312-10.304-17.84 32.192-18.592c-0.512-4.928-1.024-9.584-1.632-14l-0.672-4.32z m-104.048-46.72l20.272 35.088 14.56-8.4 10.176 17.664-14.544 8.384 18.48 32c2.336-3.408 4.624-6.912 6.832-10.4l3.264-5.248 10.752 18.624-3.424 5.264-6.784 10.192 31.456 54.512c6.864 11.856 4.864 21.504-6.08 28.752l-2.144 1.344-16.864 9.728-14.384-15.488a147.52 147.52 0 0 0 15.104-7.424c4.144-2.4 5.376-5.552 3.792-9.36l-0.72-1.456-24.192-41.904c-3.616 4.496-7.36 8.96-11.184 13.36l-5.776 6.528-15.296-15.744c5.76-5.456 11.2-11.024 16.384-16.848l5.12-5.92-22.96-39.76-22.112 12.768-10.176-17.648 22.096-12.768-20.256-35.104 18.608-10.752z m-76.144 55.328l47.04 81.456-120.256 69.44 30.8 53.328c3.92 6.816 9.184 8.656 15.76 5.552l1.664-0.88 96.8-55.872c3.488-2.016 6.112-5.088 7.488-8.976 1.248-4.16-2.32-14.56-10.464-31.424l-3.488-7.072 21.392-4.592 3.68 8.24c9.152 21.072 13.04 34.752 11.712 40.8-1.92 6.08-5.888 11.36-12.032 15.936l-2.752 1.92-107.072 61.808c-15.664 9.04-28.24 6.032-37.92-8.928l-1.488-2.464-58.24-100.848 18.624-10.752 15.344 26.56 101.44-58.56-26.656-46.16-128 73.92-10.192-17.664 146.816-84.768z m238.192 1.36l-36.08 20.832c0.08 6.4-0.32 12.864-0.864 19.104a447.68 447.68 0 0 1 36.208-5.376 68.288 68.288 0 0 0 1.6-30.128l-0.864-4.432z m176.048-109.408l-68.08 39.312c13.808 5.984 30.624 8.688 50.272 8.224 9.024-14.992 14.848-29.392 17.168-43.024l0.64-4.512z m-37.712-89.952l22.656-3.76a268.96 268.96 0 0 1-0.592 32.128l-0.544 5.76 34.72-20.032 26.88 46.56-18.048 10.4-16.912-29.28-129.952 75.024 16.912 29.28-18.032 10.416-26.88-46.56 33.168-19.136c-8.528-4.384-16.96-8-25.264-10.864l-6.208-2 11.584-17.552c8.864 3.168 17.76 6.96 26.944 11.392l6.96 3.424-8.192 12.24 40.16-23.184a202.704 202.704 0 0 0-26.032-12.16l-6.352-2.24 11.888-17.488c8.368 3.04 17.104 6.688 25.92 10.976l6.656 3.328-11.12 17.024 31.424-18.144c0.752-12.496 0.512-25.152-0.8-37.888l-0.944-7.664z m-222.08 94.608c3.712 3.088 7.632 6.512 11.728 10.24l4.16 3.856 42.48-24.512 9.632 16.672-25.216 14.56 13.28-2.512c1.312 8.352 2.16 16.48 2.528 24.112l0.16 5.632 28.528-16.464 10.192 17.664-109.392 63.152-10.192-17.648 27.36-15.792a286.416 286.416 0 0 0-16.912-10.944l-5.408-3.072 10.896-15.6c7.488 4.368 15.2 9.424 23.104 15.072l5.952 4.352 16.48-9.52a275.312 275.312 0 0 0-2.128-25.824l-1.232-8.688-69.44 40.096-9.632-16.688 40.336-23.296a174.448 174.448 0 0 0-9.76-7.376l-4.928-3.28 17.424-14.192z m229.92-129.392l17.888 10.368c-32.848 25.872-78.272 55.936-136.32 89.792l-8.8 5.12-14.944-13.36c54.592-31.52 99.808-60.592 135.584-86.992l6.608-4.928zM256.06416 68.656C462.60816-50.576 717.76016-9.504 877.37616 153.28l-28.688 16.56C698.73616 22.08 463.20016-14 272.04816 96.384 80.88016 206.752-5.63184 428.768 47.32816 632.512l-28.688 16.56C-42.52784 429.44 49.47216 187.936 256.04816 68.672z m63.984 110.848c144.768-83.584 321.36-62.176 441.568 40.64l-29.568 17.056c-109.888-87.936-266.768-104.608-396-29.984-129.232 74.608-193.248 218.8-172.032 357.92L134.43216 582.24c-28.912-155.504 40.832-319.136 185.6-402.72z"
          fill="#00CCCF" p-id="3425"></path>
</svg>