<?xml version="1.0" standalone="no"?><!DOCTYPE svg PUBLIC "-//W3C//DTD SVG 1.1//EN"
        "http://www.w3.org/Graphics/SVG/1.1/DTD/svg11.dtd">
<svg t="1693936529679" class="icon" viewBox="0 0 1024 1024" version="1.1" xmlns="http://www.w3.org/2000/svg" p-id="2644"
     width="200" height="200">
    <path d="M213.333333 566.784v186.410667h597.333334v-186.624a61.568 61.568 0 0 1-24.192-13.354667l-34.901334-31.274667a42.666667 42.666667 0 0 0-56.021333-0.768l-22.058667 18.688a81.92 81.92 0 0 1-102.826666 2.389334l-32.213334-24.746667a42.666667 42.666667 0 0 0-52.565333 0.426667l-29.098667 23.125333a81.706667 81.706667 0 0 1-103.253333-1.194667l-23.125333-19.328a42.666667 42.666667 0 0 0-55.424 0.64l-37.12 32.426667c-7.253333 6.357333-15.658667 10.752-24.533334 13.226667z m-42.666666-3.413333a74.666667 74.666667 0 0 1-42.666667-67.413334V411.818667a85.333333 85.333333 0 0 1 85.333333-85.333334h277.333334V274.176c-24.448-7.424-42.666667-27.349333-42.666667-52.309333 0-52.906667 25.514667-157.866667 64-157.866667s64 104.96 64 157.866667c0 24.96-18.218667 44.885333-42.666667 52.309333v52.352H810.666667a85.333333 85.333333 0 0 1 85.333333 85.333333v84.053334a74.666667 74.666667 0 0 1-42.666667 67.413333v201.258667a85.333333 85.333333 0 0 1-42.666666 159.274666H213.333333a85.333333 85.333333 0 0 1-42.666666-159.274666v-201.258667z m350.762666-411.818667A283.605333 283.605333 0 0 0 512 119.722667c-3.2 8.533333-6.4 19.370667-9.429333 31.829333-6.485333 26.709333-11.904 61.013333-11.904 70.314667 0 5.888 8.618667 12.8 21.333333 12.8s21.333333-6.912 21.333333-12.8c0-9.344-5.418667-43.605333-11.904-70.314667zM213.333333 795.818667a42.666667 42.666667 0 1 0 0 85.333333h597.333334a42.666667 42.666667 0 0 0 0-85.333333H213.333333z m0-426.666667a42.666667 42.666667 0 0 0-42.666666 42.666667v84.096a32 32 0 0 0 16.469333 27.946666 19.84 19.84 0 0 0 22.656-2.389333l37.12-32.426667a85.333333 85.333333 0 0 1 110.848-1.28l23.125333 19.328a39.04 39.04 0 0 0 49.365334 0.597334l29.098666-23.168a85.333333 85.333333 0 0 1 105.088-0.853334l32.213334 24.746667a39.253333 39.253333 0 0 0 49.28-1.152l22.101333-18.688a85.333333 85.333333 0 0 1 112 1.578667l34.901333 31.274666c6.058667 5.418667 14.848 6.4 21.930667 2.432a32 32 0 0 0 16.469333-27.946666v-84.053334a42.666667 42.666667 0 0 0-42.666666-42.666666H213.333333z"
          p-id="2645"></path>
</svg>