<?xml version="1.0" standalone="no"?><!DOCTYPE svg PUBLIC "-//W3C//DTD SVG 1.1//EN"
        "http://www.w3.org/Graphics/SVG/1.1/DTD/svg11.dtd">
<svg t="1693129836497" class="icon" viewBox="0 0 1024 1024" version="1.1" xmlns="http://www.w3.org/2000/svg" p-id="3414"
     width="200" height="200">
    <path d="M507.22133333 946.85866667c-231.424 0-419.15733333-188.416-419.15733333-419.15733334 0-231.424 188.416-419.15733333 419.15733333-419.15733333 231.424 0 419.15733333 188.416 419.15733334 419.15733333 0 231.424-188.416 419.15733333-419.15733334 419.15733334z m0-770.048c-193.87733333 0-350.89066667 157.696-350.89066666 350.89066666s157.696 350.89066667 350.89066666 350.89066667 350.89066667-157.696 350.89066667-350.89066667-157.696-350.89066667-350.89066667-350.89066666z"
          fill="#231815" p-id="3415"></path>
    <path d="M353.62133333 805.54666667c-6.144 0-12.97066667-2.048-18.432-5.46133334-11.60533333-7.50933333-17.74933333-21.84533333-15.01866666-35.49866666L382.29333333 455.33866667c1.36533333-8.192 6.82666667-15.70133333 13.65333334-21.16266667l256-183.63733333c11.60533333-8.192 26.624-8.87466667 38.22933333-0.68266667 11.60533333 7.50933333 17.74933333 21.84533333 15.01866667 35.49866667l-61.44 309.248c-1.36533333 8.192-6.82666667 16.384-13.65333334 21.16266666l-256.68266666 183.63733334c-6.144 4.096-12.97066667 6.144-19.79733334 6.144z m92.84266667-323.584l-42.32533333 210.944 175.44533333-125.61066667 42.32533333-211.62666667-175.44533333 126.29333334z m163.84 105.81333333z"
          fill="#231815" p-id="3416"></path>
    <path d="M517.46133333 524.288m-39.59466666 0a39.59466667 39.59466667 0 1 0 79.18933333 0 39.59466667 39.59466667 0 1 0-79.18933333 0Z"
          fill="#231815" p-id="3417"></path>
</svg>