<?xml version="1.0" standalone="no"?><!DOCTYPE svg PUBLIC "-//W3C//DTD SVG 1.1//EN"
        "http://www.w3.org/Graphics/SVG/1.1/DTD/svg11.dtd">
<svg t="1693130636029" class="icon" viewBox="0 0 1024 1024" version="1.1" xmlns="http://www.w3.org/2000/svg"
     p-id="10871" width="200" height="200">
    <path d="M149.333333 960a85.333333 85.333333 0 0 1-85.333333-85.333333V331.221333a85.333333 85.333333 0 0 1 48.64-77.056l362.666667-172.693333a85.333333 85.333333 0 0 1 73.386666 0l362.666667 172.693333A85.333333 85.333333 0 0 1 960 331.221333V874.666667a85.333333 85.333333 0 0 1-85.333333 85.333333H149.333333zM505.386667 138.24l-2.56 1.024-362.666667 172.693333a21.333333 21.333333 0 0 0-11.989333 16.554667L128 331.221333V874.666667a21.333333 21.333333 0 0 0 18.837333 21.184L149.333333 896h192V661.333333a85.333333 85.333333 0 0 1 85.333334-85.333333h170.666666a85.333333 85.333333 0 0 1 85.333334 85.333333v234.666667h192a21.333333 21.333333 0 0 0 21.184-18.837333L896 874.666667V331.221333a21.333333 21.333333 0 0 0-9.792-17.941333l-2.368-1.322667-362.666667-172.693333a21.333333 21.333333 0 0 0-15.786666-1.024zM597.333333 640h-170.666666a21.333333 21.333333 0 0 0-21.184 18.837333L405.333333 661.333333v234.666667h213.333334V661.333333a21.333333 21.333333 0 0 0-18.837334-21.184L597.333333 640z"
          fill="#333333" p-id="10872"></path>
</svg>