<?xml version="1.0" standalone="no"?><!DOCTYPE svg PUBLIC "-//W3C//DTD SVG 1.1//EN"
        "http://www.w3.org/Graphics/SVG/1.1/DTD/svg11.dtd">
<svg t="1693140619863" class="icon" viewBox="0 0 1024 1024" version="1.1" xmlns="http://www.w3.org/2000/svg" p-id="6009"
     width="200" height="200">
    <path d="M928 192v640H96V192h832z m-164.736 333.248l-205.888 205.856-144-144L232.48 768H864v-141.984l-100.736-100.768zM864 256H160v493.952l253.376-253.344 144 144 205.888-205.856L864 535.488V256zM320 288a96 96 0 1 1 0 192 96 96 0 0 1 0-192z m0 64a32 32 0 1 0 0 64 32 32 0 0 0 0-64z"
          fill="#409EFF" p-id="6010"></path>
</svg>