<?xml version="1.0" standalone="no"?><!DOCTYPE svg PUBLIC "-//W3C//DTD SVG 1.1//EN" "http://www.w3.org/Graphics/SVG/1.1/DTD/svg11.dtd"><svg t="1705135435058" class="icon" viewBox="0 0 1336 1024" version="1.1" xmlns="http://www.w3.org/2000/svg" p-id="5377" xmlns:xlink="http://www.w3.org/1999/xlink" width="260.9375" height="200"><path d="M962.41488242 65.17293594C944.94776416 61.73110918 911.08359599 59.94569815 883.74246435 91.54366016 794.31623984 231.46074248 722.63291416 258.32103418 685.95466836 263.52222998 681.95563614 264.08651065 682.07830596 269.18957129 686.46988145 270.46533711 697.73096094 273.75288418 708.23149033 275.76466807 720.67020049 276.79509336 748.78610029 279.17488584 775.13555498 275.51932842 802.07382676 268.5026208 861.27423242 253.11983838 944.66510791 217.25121113 984.94984355 162.27064268 995.94105049 147.28040352 1000.28356016 138.20284443 1001.38758594 131.92215401 1003.15403018 127.11350146 1004.18445547 121.93683945 1004.18445547 116.51483779 1004.18445547 92.12809678 985.76545713 69.77407432 962.41488242 65.17293594ZM1197.83405674 760.23523935C1197.3086958 760.10915146 1194.03043438 759.96204981 1192.03405771 760.02509287 1190.43695674 760.06712305 1188.81884112 760.15118164 1187.97826045 760.21422471 1181.6318832 760.63451416 1175.20145 760.82364599 1168.74999951 760.82364599 1087.04565195 760.82364599 993.90942002 740.25045547 938.30507158 685.67581953 936.09855019 683.49031191 933.9760874 681.28378965 931.87463838 678.99320967 930.82391387 677.87944209 905.62753584 649.72002148 938.83043516 626.64610888 963.39637724 613.40697793 996.03188369 586.10915176 996.03188369 586.10915176 1017.8239124 567.00697871 1036.04347724 547.56857305 1051.17391338 528.13016563 1089.16811562 479.37654336 1112.80941933 411.03741289 1118.16811513 376.88886143 1123.75797031 341.41639854 1130.41956465 280.15915273 1115.87753691 221.06639815 1114.70072451 216.23306504 1113.69202842 208.6888625 1108.48043516 202.3634999 1103.28985566 196.10118125 1095.47246357 192.10842793 1086.70941934 192.10842793 1078.6608705 192.10842793 1071.36884112 195.49176084 1066.22028916 200.93451435 1064.51811582 202.74176094 1060.5673918 208.77292021 1059.85289902 209.78161631 1057.79347842 212.76567354 1055.29275372 216.54828213 1051.80434756 221.31857217 1003.13478213 287.87147158 944.39927481 345.97654385 828.08405791 374.05190498 789.7326084 383.31929727 752.87318838 384.4540795 731.58550771 383.76060224 666.33550771 381.65915146 641.72753545 344.73668838 628.48840713 328.19828222 609.3652168 301.36277481 595.60072402 280.01205019 569.50072402 261.30915195 460.7507252 183.34538369 358.07391406 223.37799277 334.62173955 234.89393487 228.26739131 287.11494951 210.2159419 375.56495 191.78623232 422.49031191 185.6920291 438.06205127 174.89057979 450.75480401 159.97029013 462.48089082 144.37753614 474.75335498 109.17826104 501.71494854 92.49275323 531.36639776 91.25289863 533.59393467 93.01811592 535.61132598 94.76231855 535.88451465 95.96014473 536.09465938 97.17898555 535.33813643 97.30507256 535.29610888 114.70507227 526.9113248 154.75869599 513.20987598 198.65797138 536.05263096 252.89637646 564.27509287 263.97101445 602.64755791 329.95652276 686.1381374 395.47970967 769.04031113 498.68188437 871.6540792 683.56739112 911.47654355 822.80941982 941.48523916 937.17028935 919.10480469 1028.24710244 886.32219482 1043.48260917 880.83741289 1092.50942099 857.55335469 1095.97681162 855.64103662 1134.66449287 834.43741191 1170.87246406 809.55625273 1203.61304287 781.79610869 1205.73550742 780.07291982 1206.72318886 777.65625372 1206.91231807 777.13089013 1207.41666612 775.76494854 1207.68985566 774.31494922 1207.68985566 772.78089131 1207.68985566 766.70770273 1203.48695674 761.62219648 1197.83405674 760.23523935L1197.83405674 760.23523935ZM433.01521778 448.98806533m-78.26086934 0a3.515625 3.515625 0 1 0 156.52173955 0 3.515625 3.515625 0 1 0-156.52173955 0Z" fill="#1296db" p-id="5378"></path></svg>