<?xml version="1.0" standalone="no"?><!DOCTYPE svg PUBLIC "-//W3C//DTD SVG 1.1//EN"
        "http://www.w3.org/Graphics/SVG/1.1/DTD/svg11.dtd">
<svg t="1693130078072" class="icon" viewBox="0 0 1024 1024" version="1.1" xmlns="http://www.w3.org/2000/svg" p-id="6766"
     width="200" height="200">
    <path d="M893.611859 174.010149 130.718669 174.010149c-37.184901 0-67.314105 30.128181-67.314105 67.314105l0 538.513864c0 37.184901 30.128181 67.314105 67.314105 67.314105l762.89319 0c37.184901 0 67.314105-30.129204 67.314105-67.314105L960.925964 241.323231C960.925964 204.13833 930.79676 174.010149 893.611859 174.010149zM916.049894 779.837094c0 12.400425-10.036587 22.437012-22.439058 22.437012L130.718669 802.274106c-12.402471 0-22.437012-10.036587-22.437012-22.437012L108.281657 241.323231c0-12.401448 10.034541-22.437012 22.437012-22.437012l762.89319 0c12.402471 0 22.439058 10.035564 22.439058 22.437012L916.050917 779.837094zM909.828192 203.064882c-8.590656-8.589632-22.528086-8.589632-31.115672 0 0 0-246.382457 245.788939-343.627245 343.057263-19.720134 19.720134-25.812899 20.028149-45.13906 0.701988-96.763834-96.786347-344.328209-343.758228-344.328209-343.758228-8.589632-8.589632-22.525016-8.589632-31.114648 0-8.589632 8.568143-8.589632 22.482037 0 31.05018 0 0 245.810429 245.260913 343.29774 342.749248 35.038004 35.060517 75.049277 33.679054 108.378359 0.350994 97.244788-97.244788 343.648734-343.100242 343.648734-343.100242C918.415778 225.546919 918.415778 211.633025 909.828192 203.064882zM415.971411 494.868831c-8.589632-8.567119-22.526039-8.567119-31.115672 0L92.065324 787.023774c-8.589632 8.591679-8.589632 22.503527 0 31.070646 8.589632 8.590656 22.526039 8.590656 31.115672 0l292.790416-292.15392C424.561044 517.350868 424.561044 503.458463 415.971411 494.868831zM932.264181 787.023774l-292.788369-292.154943c-8.590656-8.567119-22.526039-8.567119-31.115672 0-8.590656 8.590656-8.590656 22.482037 0 31.071669l292.790416 292.15392c8.590656 8.590656 22.503527 8.590656 31.113625 0C940.854836 809.5273 940.854836 795.614429 932.264181 787.023774z"
          fill="#231815" p-id="6767"></path>
</svg>