<?xml version="1.0" standalone="no"?><!DOCTYPE svg PUBLIC "-//W3C//DTD SVG 1.1//EN"
        "http://www.w3.org/Graphics/SVG/1.1/DTD/svg11.dtd">
<svg t="1693129972261" class="icon" viewBox="0 0 1024 1024" version="1.1" xmlns="http://www.w3.org/2000/svg" p-id="4393"
     width="200" height="200">
    <path d="M667.626667 832c-20.565333 68.650667-83.157333 117.333333-155.776 117.333333-72.554667 0-135.189333-48.64-155.776-117.333333H128a32 32 0 0 1 0-64h21.333333V491.349333C149.333333 296.362667 294.698667 145.066667 480 129.344V96a32 32 0 0 1 64 0v33.344c185.301333 15.722667 330.666667 167.04 330.666667 362.026667V768h21.333333a32 32 0 0 1 0 64H667.626667z m-68.821334 0h-173.909333c16.874667 32.106667 49.898667 53.333333 86.954667 53.333333 37.077333 0 70.08-21.248 86.954666-53.333333zM810.666667 768V491.349333C810.666667 322.602667 678.954667 192 512 192s-298.666667 130.624-298.666667 299.349333V768h597.333334zM360.277333 428.117333a32 32 0 1 1-59.221333-24.234666c22.4-54.762667 64.341333-95.765333 122.346667-123.818667a32 32 0 1 1 27.861333 57.6c-44.522667 21.546667-74.944 51.306667-90.986667 90.453333z"
          fill="#231815" p-id="4394"></path>
</svg>