<?xml version="1.0" standalone="no"?><!DOCTYPE svg PUBLIC "-//W3C//DTD SVG 1.1//EN"
        "http://www.w3.org/Graphics/SVG/1.1/DTD/svg11.dtd">
<svg t="1693130251653" class="icon" viewBox="0 0 1024 1024" version="1.1" xmlns="http://www.w3.org/2000/svg" p-id="9762"
     width="200" height="200">
    <path d="M740.232 305.469C740.232 172.109 633.426 64 501.672 64c-131.753 0-238.56 108.109-238.56 241.469 0 84.561 42.953 158.956 107.969 202.089C192.779 563.971 63 732.897 63 931.971c0 16.568 13.432 30 30 30s30-13.432 30-30c0-212.004 169.792-384.481 378.493-384.481 2.099 0 4.146-0.217 6.124-0.627 129.006-3.195 232.615-110.046 232.615-241.394z m-417.12 0c0-48.61 18.665-94.272 52.555-128.576C409.365 142.784 454.115 124 501.672 124c47.558 0 92.307 18.784 126.005 52.893 33.891 34.304 52.555 79.966 52.555 128.576s-18.665 94.272-52.555 128.576c-33.698 34.109-78.447 52.893-126.005 52.893s-92.307-18.784-126.005-52.893c-33.891-34.304-52.555-79.966-52.555-128.576zM823.977 718.995H648.006c-16.5 0-29.999 13.5-29.999 29.999s13.5 29.999 29.999 29.999h175.971c16.5 0 29.999-13.5 29.999-29.999s-13.5-29.999-29.999-29.999zM747.987 806.993h-98.981c-16.5 0-29.999 13.5-29.999 29.999s13.5 29.999 29.999 29.999h98.981c16.5 0 29.999-13.5 29.999-29.999s-13.5-29.999-29.999-29.999z"
          fill="#231815" p-id="9763"></path>
    <path d="M899.003 625H731.656l-73.41-33h-89.229c-32.999 0-59.997 25.457-59.997 56.571V900c0 33.137 26.862 60 59.997 60h329.986C932.001 960 959 933 959 900V685c0-33-26.999-60-59.997-60z m-0.004 274.893a0.974 0.974 0 0 1-0.106 0.107H569.019V703l-0.003-51h76.364l61.676 27.725L718.79 685h180.103c0.037 0.031 0.076 0.07 0.106 0.107v214.786z"
          fill="#231815" p-id="9764"></path>
</svg>