<?xml version="1.0" standalone="no"?><!DOCTYPE svg PUBLIC "-//W3C//DTD SVG 1.1//EN"
        "http://www.w3.org/Graphics/SVG/1.1/DTD/svg11.dtd">
<svg t="1710769514529" class="icon" viewBox="0 0 1024 1024" version="1.1" xmlns="http://www.w3.org/2000/svg" p-id="4373"
     width="200" height="200">
    <path d="M894.5664 265.9328l71.68 273.92L129.8432 757.76l-71.68-273.92L894.0544 266.24m4.9152-21.9136a10.24 10.24 0 0 0-3.4816 0L46.592 466.1248a13.6192 13.6192 0 0 0-10.24 16.2816l74.9568 286.72a13.4144 13.4144 0 0 0 15.9744 10.24h0.7168l848.896-221.696a13.7216 13.7216 0 0 0 10.24-16.4864l-74.9568-286.72a13.6192 13.6192 0 0 0-13.2096-10.24zM461.4144 172.032c-3.584 7.68-10.24 20.48-10.24 20.48s4.5056 11.0592 7.3728 18.6368c1.4336 3.9936-1.024 6.4512-4.7104 5.7344l-20.48-4.4032-15.6672 13.6192a3.9936 3.9936 0 0 1-5.5296 0.512 4.5056 4.5056 0 0 1-1.3312-3.1744c-1.2288-7.9872-2.6624-19.8656-2.6624-19.8656s-12.0832-7.9872-19.0464-13.0048c-2.4576-1.7408-2.1504-5.3248 1.4336-6.8608L409.6 175.104s3.2768-13.312 5.4272-21.504c1.1264-4.9152 2.7648-4.8128 3.072-4.7104a9.6256 9.6256 0 0 1 4.096 2.8672l15.1552 16.1792 19.7632-1.2288c3.7888 0 5.8368 2.56 4.608 5.3248zM275.7632 267.3664c0 8.4992-0.9216 22.8352-0.9216 22.8352l14.336 14.1312c2.8672 3.072 1.6384 6.2464-2.048 7.0656-6.9632 1.536-17.7152 3.584-20.48 4.096l-8.8064 18.7392a3.8912 3.8912 0 0 1-4.9152 2.4576 4.1984 4.1984 0 0 1-2.4576-2.4576c-4.3008-6.8608-10.24-17.2032-10.24-17.2032s-14.2336-2.4576-22.528-4.1984a3.9936 3.9936 0 0 1-2.6624-4.608 3.7888 3.7888 0 0 1 1.4336-2.2528l13.1072-15.2576s-2.3552-13.5168-3.6864-21.8112c-1.024-5.0176 0-5.5296 0.8192-5.632a7.4752 7.4752 0 0 1 4.9152 1.024l20.48 8.704 17.6128-9.1136c3.3792-1.8432 6.3488 0 6.3488 3.072zM604.16 181.6576c-1.4336-2.6624 0-5.7344 4.096-5.8368l19.7632-0.6144s8.2944-10.9568 13.5168-17.6128c1.8432-2.4576 3.072-3.072 3.8912-3.2768s1.8432 0 3.3792 4.5056c2.9696 7.8848 7.4752 20.48 7.4752 20.48l18.8416 6.8608c3.6864 1.1264 4.4032 4.7104 2.048 6.7584-6.3488 5.5296-17.5104 14.7456-17.5104 14.7456s0 11.8784-0.7168 19.968a3.9936 3.9936 0 0 1-3.584 4.4032 4.1984 4.1984 0 0 1-3.072-1.024L634.88 219.3408l-19.1488 5.9392c-3.584 1.024-6.2464-1.2288-5.2224-5.2224 2.1504-7.8848 5.5296-19.3536 5.5296-19.3536s-7.68-12.1856-11.9808-19.456zM632.6272 827.6992a3.9936 3.9936 0 0 1 0.6144 5.632 3.9936 3.9936 0 0 1-2.048 1.3312l-17.8176 8.6016-5.3248 21.504c-0.7168 2.9696-1.536 4.096-2.1504 4.5056s-1.6384 1.1264-5.0176-2.6624l-15.2576-16.0768-19.968 1.2288c-3.7888 0-5.8368-2.56-4.608-5.3248 3.584-7.68 10.24-20.48 10.24-20.48s-4.5056-11.0592-7.3728-18.6368c-1.4336-3.8912 1.024-6.3488 4.8128-5.7344l20.48 4.3008L604.16 792.064a4.096 4.096 0 0 1 5.5296 0 4.5056 4.5056 0 0 1 1.3312 3.1744c1.2288 8.0896 2.6624 20.48 2.6624 20.48s11.9808 8.0896 18.8416 13.0048zM424.0384 835.2768c1.536 2.6624 0 5.8368-3.9936 5.8368l-19.8656 0.6144-13.4144 17.6128c-1.9456 2.4576-3.1744 3.1744-3.8912 3.2768s-1.9456 0-3.4816-4.5056l-7.4752-20.48-18.8416-6.7584a3.9936 3.9936 0 0 1-3.2768-4.608 4.9152 4.9152 0 0 1 1.2288-2.2528C357.4784 818.0736 368.64 808.96 368.64 808.96s0-11.9808 0.7168-20.48a3.9936 3.9936 0 0 1 3.6864-4.3008 3.8912 3.8912 0 0 1 2.9696 1.024l16.896 11.9808 19.5584-6.2464c3.584-1.1264 6.2464 1.1264 5.2224 5.12-2.1504 7.8848-5.5296 19.3536-5.5296 19.3536s7.68 12.1856 11.8784 19.456zM752.4352 749.568c0-8.4992 0.8192-22.8352 0.8192-22.8352s-8.4992-8.2944-14.2336-14.1312a3.8912 3.8912 0 0 1 1.9456-7.0656l20.48-4.096c1.1264-2.2528 5.8368-12.1856 8.9088-18.7392a3.8912 3.8912 0 0 1 4.9152-2.4576 4.1984 4.1984 0 0 1 2.4576 2.4576c4.3008 6.9632 10.24 17.2032 10.24 17.2032s14.2336 2.4576 22.528 4.1984a3.8912 3.8912 0 0 1 2.8672 4.8128 3.6864 3.6864 0 0 1-1.3312 2.1504L798.72 725.8112s2.3552 13.5168 3.6864 21.9136c1.024 4.9152 0 5.4272-0.8192 5.5296a6.8608 6.8608 0 0 1-4.9152-1.024c-7.8848-3.1744-20.48-8.704-20.48-8.704l-17.6128 9.1136c-3.3792 1.8432-6.4512 0-6.3488-3.072zM281.1904 398.336a10.24 10.24 0 0 1-5.12-1.4336 10.24 10.24 0 0 1-3.7888-13.9264 278.3232 278.3232 0 0 1 380.2112-101.6832l2.8672 1.6384a10.24 10.24 0 0 1-10.24 17.6128 257.6384 257.6384 0 0 0-353.3824 89.4976l-1.536 2.6624a10.24 10.24 0 0 1-9.0112 5.632z"
          fill="#FF3333" p-id="4374"></path>
    <path d="M103.1168 444.8256h-2.1504a10.24 10.24 0 0 1-7.8848-12.1856 430.08 430.08 0 0 1 742.912-194.56 10.24 10.24 0 0 1-15.36 13.5168 409.6 409.6 0 0 0-707.4816 184.32 10.24 10.24 0 0 1-10.0352 8.9088zM507.8016 781.5168a278.2208 278.2208 0 0 1-143.36-40.0384 10.24 10.24 0 0 1 10.24-17.6128 257.8432 257.8432 0 0 0 353.9968-87.6544l3.1744-5.5296a10.24 10.24 0 0 1 18.3296 9.1136v0.7168A276.48 276.48 0 0 1 578.56 772.3008a280.1664 280.1664 0 0 1-70.7584 9.216z"
          fill="#FF3333" p-id="4375"></path>
    <path d="M507.1872 932.6592A427.6224 427.6224 0 0 1 184.32 785.8176a10.24 10.24 0 1 1 15.4624-13.5168 409.6 409.6 0 0 0 708.9152-185.0368 10.24 10.24 0 0 1 20.48 4.3008 431.5136 431.5136 0 0 1-421.9904 341.0944zM483.9424 514.3552A164.864 164.864 0 0 1 471.04 572.1088a127.488 127.488 0 0 0 48.3328 16.896 86.3232 86.3232 0 0 0-8.6016 18.432 136.0896 136.0896 0 0 1-48.2304-19.1488 153.6 153.6 0 0 1-39.5264 42.9056 89.7024 89.7024 0 0 0-13.824-12.1856 24.1664 24.1664 0 0 1-2.048 11.1616 18.0224 18.0224 0 0 1-11.264 10.24c-4.7104 1.6384-13.0048 3.8912-21.6064 5.8368a33.9968 33.9968 0 0 0-8.704-13.7216c8.8064-1.4336 16.5888-3.3792 19.6608-4.1984a7.9872 7.9872 0 0 0 6.144-4.096c2.4576-4.8128 1.1264-20.48-6.4512-58.0608l-52.4288 14.1312c-2.2528-17.5104-7.7824-46.6944-12.4928-67.9936l16.2816-3.3792c3.3792 16.1792 7.2704 36.2496 10.24 52.5312l22.2208-5.9392c-2.2528-17.6128-6.7584-43.8272-11.4688-66.6624L307.2 501.76l-4.096-15.2576 65.536-17.7152c5.3248 26.112 11.8784 60.6208 14.848 81.92l13.0048-3.4816s1.2288 4.7104 1.6384 7.0656a392.8064 392.8064 0 0 1 10.24 63.5904 136.9088 136.9088 0 0 0 38.6048-39.8336 195.7888 195.7888 0 0 1-40.0384-42.496l14.4384-8.9088a152.9856 152.9856 0 0 0 33.9968 35.4304 126.6688 126.6688 0 0 0 9.5232-47.104z m-102.4 84.48c-15.2576 8.704-30.72 17.6128-44.1344 24.8832l-7.168-13.6192c12.288-5.9392 29.184-15.0528 46.2848-24.4736z m97.0752-91.0336a284.5696 284.5696 0 0 0-38.1952-15.4624 204.8 204.8 0 0 1-36.864 37.6832 131.7888 131.7888 0 0 0-16.4864-10.24 201.0112 201.0112 0 0 0 35.9424-33.0752c-12.9024-3.9936-25.8048-7.168-37.888-10.24l7.9872-14.848a399.36 399.36 0 0 1 40.96 10.24A124.1088 124.1088 0 0 0 448.8192 440.32l18.432 1.4336A147.8656 147.8656 0 0 1 450.56 477.3888 344.9856 344.9856 0 0 1 486.912 491.52zM661.4016 386.9696l45.7728 170.2912-19.3536 5.2224-2.7648-10.24-123.5968 32.9728 2.7648 10.24-18.5344 5.0176L499.9168 430.08z m19.1488 148.1728L647.0656 410.624l-123.5968 33.1776 33.3824 124.6208z m-50.3808-91.648l19.0464 71.0656-76.1856 20.48-19.0464-71.0656z m-13.7216 20.48l-40.96 11.0592 10.24 39.424 40.96-11.0592z"
          fill="#FF3333" p-id="4376"></path>
</svg>