<?xml version="1.0" standalone="no"?><!DOCTYPE svg PUBLIC "-//W3C//DTD SVG 1.1//EN"
        "http://www.w3.org/Graphics/SVG/1.1/DTD/svg11.dtd">
<svg t="1693149244827" class="icon" viewBox="0 0 1024 1024" version="1.1" xmlns="http://www.w3.org/2000/svg" p-id="8816"
     width="200" height="200">
    <path d="M270.831234 867.949622c-3.869018 0-6.448363-1.289673-10.31738-2.579345-9.027708-3.869018-15.476071-12.896725-15.476071-23.214106V710.609572C159.919395 696.423174 90.277078 617.753149 90.277078 527.476071V340.473552C90.277078 238.589421 174.105793 154.760705 277.279597 154.760705h479.758186c103.173804 0 184.423174 81.24937 184.423174 185.712847v187.002519C941.460957 629.360202 860.211587 709.319899 757.037783 709.319899H450.095718L288.88665 861.501259c-5.15869 3.869018-11.607053 6.448363-18.055416 6.448363z m6.448363-661.602015C202.478589 206.347607 141.86398 266.962217 141.86398 340.473552v187.002519c0 77.380353 68.352645 134.125945 128.967254 134.125944 14.186398 0 25.793451 11.607053 25.793451 25.793451v95.435768l125.098237-118.649874c5.15869-3.869018 11.607053-6.448363 18.055416-6.448363h317.259445C833.128463 657.732997 889.874055 600.987406 889.874055 527.476071V340.473552C889.874055 265.672544 831.838791 206.347607 757.037783 206.347607H277.279597z"
          fill="" p-id="8817"></path>
</svg>