<?xml version="1.0" standalone="no"?><!DOCTYPE svg PUBLIC "-//W3C//DTD SVG 1.1//EN"
        "http://www.w3.org/Graphics/SVG/1.1/DTD/svg11.dtd">
<svg t="1698149230119" class="icon" viewBox="0 0 1024 1024" version="1.1" xmlns="http://www.w3.org/2000/svg" p-id="2591"
     width="200" height="200">
    <path d="M243.029333 512L98.133333 139.605333c-10.069333-25.941333 15.189333-50.730667 40.192-41.898666l3.968 1.706666 768 384a32 32 0 0 1 4.138667 54.741334l-4.138667 2.474666-768 384c-24.874667 12.416-51.925333-10.453333-45.44-36.138666l1.28-4.096L243.029333 512 98.133333 139.605333 243.029333 512zM187.904 193.706667l111.317333 286.293333h282.794667a32 32 0 0 1 31.701333 27.648l0.298667 4.352a32 32 0 0 1-27.690667 31.701333l-4.309333 0.298667H299.221333l-111.317333 286.293333L824.490667 512 187.861333 193.706667z"
          fill="#212121" p-id="2592"></path>
</svg>
