<?xml version="1.0" standalone="no"?><!DOCTYPE svg PUBLIC "-//W3C//DTD SVG 1.1//EN"
        "http://www.w3.org/Graphics/SVG/1.1/DTD/svg11.dtd">
<svg t="1693141021306" class="icon" viewBox="0 0 1024 1024" version="1.1" xmlns="http://www.w3.org/2000/svg" p-id="7863"
     width="200" height="200">
    <path d="M512 822c171.208 0 310-138.792 310-310s-138.792-310-310-310-310 138.792-310 310 138.792 310 310 310z m0 90c-220.914 0-400-179.086-400-400S291.086 112 512 112s400 179.086 400 400-179.086 400-400 400z"
          fill="#409EFF" p-id="7864"></path>
    <path d="M310.93 638.328c-12.332-21.576-4.836-49.066 16.74-61.398 21.58-12.332 49.068-4.836 61.4 16.74C415.608 640.106 454.586 662 512.004 662c57.418 0 96.398-21.896 122.934-68.328 12.332-21.58 39.82-29.074 61.4-16.74 21.576 12.33 29.072 39.82 16.74 61.396C670.27 713.228 601.248 752 512.004 752c-89.244 0-158.266-38.772-201.074-113.672z"
          fill="#409EFF" p-id="7865"></path>
    <path d="M342 432m-50 0a50 50 0 1 0 100 0 50 50 0 1 0-100 0Z" fill="#409EFF" p-id="7866"></path>
    <path d="M682 432m-50 0a50 50 0 1 0 100 0 50 50 0 1 0-100 0Z" fill="#409EFF" p-id="7867"></path>
</svg>