<?xml version="1.0" standalone="no"?><!DOCTYPE svg PUBLIC "-//W3C//DTD SVG 1.1//EN"
        "http://www.w3.org/Graphics/SVG/1.1/DTD/svg11.dtd">
<svg t="1693920135318" class="icon" viewBox="0 0 1024 1024" version="1.1" xmlns="http://www.w3.org/2000/svg" p-id="3132"
     width="200" height="200">
    <path d="M530.01216 38.4c-152.69888 0-276.48 123.78112-276.48 276.48s123.78112 276.48 276.48 276.48 276.48-123.78112 276.48-276.48-123.78112-276.48-276.48-276.48z m0 481.28c-112.92672 0-204.8-91.87328-204.8-204.8s91.87328-204.8 204.8-204.8 204.8 91.87328 204.8 204.8-91.87328 204.8-204.8 204.8z"
          fill="#3E3A39" p-id="3133"></path>
    <path d="M92.08832 897.23904c-0.8192 3.00032-1.39264 6.10304-1.39264 9.34912a35.84 35.84 0 1 0 71.68 0h0.58368c26.81856-178.50368 181.18656-315.81184 367.0528-315.81184v-71.68c-222.59712 0-406.56896 164.25984-437.92384 378.14272zM923.40224 766.60736a35.84 35.84 0 0 1-35.84 35.84h-286.72a35.84 35.84 0 1 1 0-71.68h286.72c19.78368 0 35.84 16.05632 35.84 35.84z"
          fill="#3E3A39" p-id="3134"></path>
</svg>