<?xml version="1.0" standalone="no"?><!DOCTYPE svg PUBLIC "-//W3C//DTD SVG 1.1//EN"
        "http://www.w3.org/Graphics/SVG/1.1/DTD/svg11.dtd">
<svg t="1693130172773" class="icon" viewBox="0 0 1024 1024" version="1.1" xmlns="http://www.w3.org/2000/svg" p-id="8777"
     width="200" height="200">
    <path d="M958.72 582.528c-38.784-55.936-91.136-97.92-151.936-122.112 26.88-18.816 49.408-44.032 65.792-73.472 18.944-34.048 28.928-72.832 28.928-112.256 0-123.136-95.36-223.232-212.48-223.232-16.64 0-30.208 13.568-30.208 30.208 0 16.64 13.568 30.208 30.208 30.208 83.84 0 152.064 73.088 152.064 162.816 0 89.856-68.224 162.944-152.064 162.944-16.64 0-30.208 13.568-30.208 30.208l0 0.128c0 16.64 13.568 30.208 30.208 30.208 150.784 0 273.536 130.816 273.536 291.584 0 16.64 13.568 30.208 30.208 30.208 16.64 0 30.208-13.568 30.208-30.208C1022.848 714.624 1000.704 643.072 958.72 582.528L958.72 582.528zM646.784 531.2c-31.616-22.4-66.176-40.192-102.528-52.736 76.928-46.72 124.16-130.048 124.16-220.544C668.416 115.712 552.704 0 410.496 0 268.16 0 152.448 115.712 152.448 258.048c0 48.384 13.568 95.616 39.168 136.576 21.76 34.688 51.2 63.616 86.016 84.48-37.12 12.672-72.064 30.592-104.192 53.376-35.072 24.832-65.792 54.784-91.648 89.088C28.288 692.992 0 777.856 0 867.2c0 16.64 13.568 30.208 30.208 30.208 16.64 0 30.208-13.568 30.208-30.208 0-93.056 36.352-180.864 102.272-247.04 65.792-66.048 152.832-102.4 245.12-102.528 3.072 0.256 6.144 0 9.216-0.64l2.432-0.512c89.856 1.792 174.208 38.016 238.464 102.528 65.92 66.176 102.144 153.856 102.144 247.04 0 16.64 13.568 30.208 30.208 30.208 16.64 0 30.208-13.568 30.208-30.208 0-89.344-28.288-174.208-81.92-245.632C712.704 585.984 681.856 556.032 646.784 531.2L646.784 531.2zM410.496 60.416c108.928 0 197.632 88.704 197.632 197.632 0 108.928-88.704 197.632-197.632 197.632-108.928 0-197.632-88.704-197.632-197.632C212.864 148.992 301.568 60.416 410.496 60.416L410.496 60.416z"
          fill="#231815" p-id="8778"></path>
</svg>